<?xml version="1.0" encoding="UTF-8" standalone="no"?><!DOCTYPE svg PUBLIC "-//W3C//DTD SVG 1.1//EN" "http://www.w3.org/Graphics/SVG/1.1/DTD/svg11.dtd"><svg width="100%" height="100%" viewBox="0 0 2000 2000" version="1.1" xmlns="http://www.w3.org/2000/svg" xmlns:xlink="http://www.w3.org/1999/xlink" xml:space="preserve" xmlns:serif="http://www.serif.com/" style="fill-rule:evenodd;clip-rule:evenodd;stroke-linejoin:round;stroke-miterlimit:2;"><path d="M983.344,441.24c55.112,-3.182 110.36,3.197 163.293,18.858c124.354,38.435 228.599,124.243 290.213,238.892c-20.263,6.538 -61.297,16.001 -82.775,20.835c-3.644,-5.999 -7.38,-11.939 -11.213,-17.819c-55.432,-84.394 -152.783,-151.878 -251.693,-171.823c-100.438,-20.709 -204.983,-0.247 -290.203,56.799c-80.004,52.474 -140.075,130.284 -170.587,220.966c-9.11,27.877 -14.077,56.173 -19.786,84.85c-32.867,-12.799 -83.042,-21.828 -117.47,-21.266c-75.987,1.039 -148.333,32.719 -200.631,87.856c-51.698,53.763 -83.05,130.398 -81.123,205.22c1.891,74.038 33.334,144.241 87.316,194.95c103.693,97.604 258.145,114.465 394.073,108.204c225.608,-10.388 471.414,-82.439 630.1,-250.689c63.226,-66.204 115.675,-153.182 132.271,-243.884c45.75,33.515 84.626,84.005 116.419,130.246c-49.292,97.245 -122.639,182.02 -207.209,250.299c-227.101,183.349 -517.872,227.429 -801.166,196.985c-132.743,-14.264 -268.844,-57.714 -355.224,-165.6c-60.651,-74.62 -88.584,-170.577 -77.457,-266.093c18.873,-165.779 149.417,-299.699 314.054,-324.241c35.913,-5.356 68.09,-3.928 103.733,0.282c17.56,-62.537 55.518,-131.068 97.904,-180.197c88.478,-102.546 201.69,-163.121 337.163,-173.628Z" style="fill:#343231;fill-rule:nonzero;"/><path d="M1788.759,1031.747c0.852,0.63 1.641,1.165 2.355,1.992c48.768,56.698 81.242,133.587 80.788,208.916c-0.451,83.723 -34.345,163.795 -94.139,222.401c-39.701,38.755 -88.672,66.685 -142.239,81.123c-70.566,18.74 -170.963,12.882 -245.604,11.077l-181.848,-3.5c-26.357,0.61 -60.43,-3.855 -85.705,-0.426c37.26,-17.194 73.228,-29.131 112.442,-48.642c120.917,-60.064 227.227,-145.862 311.469,-251.37c22.905,-29.214 43.783,-59.065 63.105,-90.705c0.991,-1.624 6.858,-9.841 9.009,-8.477c24.738,15.666 67.681,12.065 90.977,-4.884c7.153,-5.658 24.645,-34.206 30.896,-43.76c16.009,-24.683 32.174,-49.264 48.493,-73.745Z" style="fill:#343231;fill-rule:nonzero;"/><path d="M1398.526,883.334c-39.988,-18.384 -80.261,-36.841 -122.972,-48.009c-11.596,-3.031 -46.133,-7.693 -52.931,-14.1c-3.543,-9.985 11.329,-15.164 19.103,-17.479c34.806,-10.358 69.585,-20.648 104.57,-30.416c93.915,-25.603 188.225,-49.731 282.899,-72.371l155.814,-37.436c30.026,-7.418 60.841,-14.801 90.937,-22.138c5.646,-1.374 15.852,-1.44 17.406,5.792c-4.13,15.971 -30.727,51.975 -40.792,67.684c-26.08,41.478 -52.55,82.709 -79.411,123.688c-49.706,76.431 -99.051,153.081 -149.349,229.133c-3.644,5.512 -6.362,10.363 -13.323,9.907c-9.672,-8.623 -21.153,-30.23 -29.128,-42.023c-10.01,-14.516 -20.696,-28.558 -32.02,-42.076c-8.207,-9.64 -66.388,-65.886 -67.943,-71.738c9.155,-11.69 50.036,-38.258 64.64,-48.422l122.397,-86.527c16.263,-11.367 49.151,-32.308 62.308,-43.165c19.594,-12.501 38.125,-27.956 58.105,-40.071c5.769,-3.497 11.816,-7.58 17.201,-11.616l-1.104,-0.706c-28.394,14.531 -55.054,25.835 -82.906,39.637l-219.242,102.793c-27.408,13.044 -77.57,39.703 -104.258,49.66Z" style="fill:#343231;fill-rule:nonzero;"/><path d="M876.121,1130.461c19.451,0.139 28.377,16.415 44.801,25.399c44.948,24.587 95.208,24.383 138.593,-3.641c7.595,-3.58 24.935,-21.115 32.572,-21.327c33.659,-0.938 12.489,31.95 4.554,41.73c-7.151,9.188 -15.898,17.199 -25.22,24.148c-30.538,22.502 -68.849,31.755 -106.29,25.674c-35.058,-5.436 -68.352,-25.129 -89.172,-53.909c-9.516,-13.152 -16.717,-28.16 0.161,-38.074Z" style="fill:#343231;fill-rule:nonzero;"/><path d="M789.634,978.187c24.778,-1.639 44.158,7.461 52.951,32.217c4.811,13.737 3.707,28.853 -3.046,41.748c-7.769,15.167 -17.287,21.173 -32.638,25.868c-65.757,7.975 -79.207,-83.372 -17.267,-99.833Z" style="fill:#343231;fill-rule:nonzero;"/><path d="M1164.501,979.995c26.677,-4.629 52.078,13.18 56.819,39.842c4.738,26.659 -12.97,52.131 -39.61,56.978c-26.793,4.877 -52.447,-12.955 -57.212,-39.769c-4.766,-26.813 13.17,-52.394 40.003,-57.051Z" style="fill:#343231;fill-rule:nonzero;"/></svg>