<?xml version="1.0" encoding="utf-8" ?><svg xmlns="http://www.w3.org/2000/svg" xmlns:xlink="http://www.w3.org/1999/xlink" width="1024" height="1024" viewBox="0 0 1024 1024"><defs><linearGradient id="gradient_0" gradientUnits="userSpaceOnUse" x1="516.45203" y1="614.05121" x2="747.12073" y2="204.43167"><stop offset="0" stop-color="#B32128"/><stop offset="1" stop-color="#FF444A"/></linearGradient></defs><path fill="url(#gradient_0)" d="M571.321 193.722C560.165 180.76 536.668 162.688 519.315 160.88C514.112 160.394 505.75 164.203 501.39 160.107C490.412 149.797 500.303 140.32 512.067 139.792C539.666 138.554 563.526 155.609 582.666 173.686C587.103 177.876 591.283 184.243 595.786 187.89C654.2 176.174 717.108 185.164 768.623 215.598L768.051 216.35C763.291 222.507 760.509 222.022 758.027 230.724C759.956 237.597 764.097 243.702 772.033 241.381C778.933 239.363 782.664 232.479 788.115 228.428C798.374 236.275 807.475 243.614 816.631 252.833C848.429 284.796 868.95 326.247 875.088 370.913C876.305 379.946 877.189 391.39 876.997 400.439C889.488 397.639 908.487 396.359 920.486 401.657C940.819 408.454 948.796 428.581 946.325 448.678C938.774 485.037 900.819 499.662 867.151 492.505C864.292 491.886 861.482 491.062 858.742 490.038C832.548 548.968 786.596 587.945 726.891 610.926C688.05 625.876 629.448 634.214 587.987 629.807C576.248 641.739 555.551 653.601 538.963 656.839C530.345 668.231 518.67 671.519 505.11 673.073C497.7 687.607 477.035 696.031 462.056 688.639C454.325 694.464 449.325 696.976 439.934 698.746C430.512 710.529 408.73 716.762 396.116 706.72C382.031 718.144 359.755 728.122 342.117 717.285C330.601 710.21 331.511 695.882 338.932 685.821C326.905 692.16 321.073 694.245 307.687 695.04C300.431 713.325 278.67 716.917 262.097 710.048C254.271 726.606 234.772 727.951 219.806 721.405C219.588 722.126 219.36 722.843 219.12 723.556C214.052 738.589 198.774 738.487 186.223 734.169L185.665 734.34C178.525 736.476 170.37 736.812 163.715 732.982C158.658 730.041 155.069 725.111 153.825 719.394C149.851 701.621 164.339 690.343 179.815 686.94C176.767 670.754 188.541 662.951 202.813 660.789C183.401 648.222 191.921 629.502 204.765 616.009C218.677 601.395 237.978 590.926 258.457 590.395C264.71 577.264 280.465 571.916 293.659 565.93C285.78 544.228 312.946 535.382 328.145 529.05C336.358 517.577 340.389 516.056 352.205 508.676C364.373 501.076 379.177 492.801 389.784 483.2C384.21 462.577 381.652 454.964 379.983 433.225C377.902 432.833 372.116 432.758 369.64 432.81C331.267 433.602 299.168 403.435 311.324 363.947C320.606 333.794 361.379 325.917 388.743 328.112C393.584 328.5 399.249 328.597 404.081 330.305C406.188 324.71 411.37 315.775 414.456 310.637C440.24 267.703 478.124 233.804 523.175 212.083C538.268 204.806 554.894 197.728 571.321 193.722ZM374.923 550.76C361.057 555.788 330.053 570.628 337.807 590.624C338.543 592.52 340.534 595.17 341.764 596.895C325.689 601.689 287.123 616.061 292.076 640.296C293.373 646.645 298.339 649.401 303.103 652.825C302.933 655.793 302.683 658.755 302.353 661.71C314.741 665.244 318.989 666.259 332.122 665.281C333.281 664.756 337.24 663.761 339.248 662.893C348.636 658.84 353.546 653.922 359.586 646.011C379.345 654.355 395.729 645.912 410.049 632.214C412.612 633.041 415.284 633.481 417.977 633.519C431.76 633.79 443.417 625.759 452.939 616.617C451.906 616.72 448.28 618.148 447.262 618.606C407.192 636.62 377.563 597.074 405.646 563.33C407.854 560.678 409.527 557.821 412.523 555.417C414.297 552.95 416.993 550.679 419.257 548.575C420.312 547.426 423.265 544.932 424.552 543.778C416.051 533.75 409.351 522.842 402.837 511.484C398.161 514.65 392.134 517.981 387.001 520.355C375.523 525.663 361.32 538.9 374.923 550.76Z"/><path fill="#B0E4EE" d="M389.784 483.2C393.129 491.933 396.038 498.673 400.394 506.985L402.837 511.484C398.161 514.65 392.134 517.981 387.001 520.355C375.523 525.663 361.32 538.9 374.923 550.76C361.057 555.788 330.053 570.628 337.807 590.624C338.543 592.52 340.534 595.17 341.764 596.895C325.689 601.689 287.123 616.061 292.076 640.296C293.373 646.645 298.339 649.401 303.103 652.825C302.933 655.793 302.683 658.755 302.353 661.71C314.741 665.244 318.989 666.259 332.122 665.281C333.281 664.756 337.24 663.761 339.248 662.893C348.636 658.84 353.546 653.922 359.586 646.011C379.345 654.355 395.729 645.912 410.049 632.214C412.612 633.041 415.284 633.481 417.977 633.519C431.76 633.79 443.417 625.759 452.939 616.617C453.893 615.03 470.357 604.136 472.983 602.568C476.968 600.218 479.411 598.712 483.083 595.947C485.757 597.422 488.256 599.053 490.893 600.549C472.997 614.827 468.507 641.083 494.833 650.948C496.85 651.703 499.149 651.934 501.294 652.195L502.144 652.302L502.656 652.361C529.102 653.409 550.714 642.194 572.597 628.705C574.616 628.241 584.949 629.616 587.987 629.807C576.248 641.739 555.551 653.601 538.963 656.839C530.345 668.231 518.67 671.519 505.11 673.073C497.7 687.607 477.035 696.031 462.056 688.639C454.325 694.464 449.325 696.976 439.934 698.746C430.512 710.529 408.73 716.762 396.116 706.72C382.031 718.144 359.755 728.122 342.117 717.285C330.601 710.21 331.511 695.882 338.932 685.821C326.905 692.16 321.073 694.245 307.687 695.04C300.431 713.325 278.67 716.917 262.097 710.048C254.271 726.606 234.772 727.951 219.806 721.405C219.588 722.126 219.36 722.843 219.12 723.556C214.052 738.589 198.774 738.487 186.223 734.169L185.665 734.34C178.525 736.476 170.37 736.812 163.715 732.982C158.658 730.041 155.069 725.111 153.825 719.394C149.851 701.621 164.339 690.343 179.815 686.94C176.767 670.754 188.541 662.951 202.813 660.789C183.401 648.222 191.921 629.502 204.765 616.009C218.677 601.395 237.978 590.926 258.457 590.395C264.71 577.264 280.465 571.916 293.659 565.93C285.78 544.228 312.946 535.382 328.145 529.05C336.358 517.577 340.389 516.056 352.205 508.676C364.373 501.076 379.177 492.801 389.784 483.2Z"/><path fill="#DCF4F8" d="M400.394 506.985L402.837 511.484C398.161 514.65 392.134 517.981 387.001 520.355C375.523 525.663 361.32 538.9 374.923 550.76C361.057 555.788 330.053 570.628 337.807 590.624C338.543 592.52 340.534 595.17 341.764 596.895C325.689 601.689 287.123 616.061 292.076 640.296C293.373 646.645 298.339 649.401 303.103 652.825C302.933 655.793 302.683 658.755 302.353 661.71C314.741 665.244 318.989 666.259 332.122 665.281L332.925 666.15C332.037 666.568 331.396 666.479 330.926 666.706C321.805 675.63 310.789 680.416 298.39 674.476C286.777 683.33 271.389 690.182 256.646 683.633C251.747 681.456 251.841 677.1 249.566 673.173C234.376 646.953 253.435 631.259 275.983 625.717C258.703 602.285 289.603 588.657 308.059 584.716C306.566 580.257 305.678 577.49 307.701 572.765C311.56 563.746 325.207 558.012 333.729 554.379C335.001 551.362 336.247 549.183 339.111 546.966C351.652 537.255 365.139 525.351 379.171 518.136C382.292 516.531 389.131 516.567 392.451 516.754C394.523 512.864 396.281 508.766 400.394 506.985Z"/><defs><linearGradient id="gradient_1" gradientUnits="userSpaceOnUse" x1="378.25717" y1="704.62244" x2="475.79825" y2="589.64832"><stop offset="0" stop-color="#D4F2F5"/><stop offset="1" stop-color="white"/></linearGradient></defs><path fill="url(#gradient_1)" d="M483.083 595.947C485.757 597.422 488.256 599.053 490.893 600.549C472.997 614.827 468.507 641.083 494.833 650.948C496.85 651.703 499.149 651.934 501.294 652.195L502.144 652.302L502.656 652.361C500.182 656.288 482.152 665.673 476.723 666.693C471.299 667.711 467.617 666.851 462.31 665.892C453.262 675.189 444.443 682.746 430.616 677.689C419.715 685.052 396.397 699.137 384.322 684.593C379.214 678.442 386.197 666.966 390.234 662.038C391.276 660.69 393.2 659.247 393.677 657.681C391.609 657.674 388.485 661.033 386.891 662.585C372.507 676.589 348.731 679.397 332.262 667.312C331.676 666.882 331.686 666.95 330.926 666.706C331.396 666.479 332.037 666.568 332.925 666.15L332.122 665.281C333.281 664.756 337.24 663.761 339.248 662.893C348.636 658.84 353.546 653.922 359.586 646.011C379.345 654.355 395.729 645.912 410.049 632.214C412.612 633.041 415.284 633.481 417.977 633.519C431.76 633.79 443.417 625.759 452.939 616.617C453.893 615.03 470.357 604.136 472.983 602.568C476.968 600.218 479.411 598.712 483.083 595.947Z"/><defs><linearGradient id="gradient_2" gradientUnits="userSpaceOnUse" x1="360.62695" y1="434.15112" x2="406.20206" y2="325.48602"><stop offset="0" stop-color="#C32329"/><stop offset="1" stop-color="#FF3F47"/></linearGradient></defs><path fill="url(#gradient_2)" d="M379.983 433.225C377.902 432.833 372.116 432.758 369.64 432.81C331.267 433.602 299.168 403.435 311.324 363.947C320.606 333.794 361.379 325.917 388.743 328.112C393.584 328.5 399.249 328.597 404.081 330.305C410.954 331.687 417.395 333.408 424.183 335.031C437.088 338.119 449.466 340.221 457.467 352.062C464.112 361.898 461.215 365.797 462.595 374.147C462.364 379.545 460.632 385.703 458.134 390.487C454.702 394.475 451.635 401.679 447.746 405.176C433.65 417.853 417.816 425.353 399.61 430.23C394.351 431.639 384.179 431.661 379.983 433.225Z"/><defs><linearGradient id="gradient_3" gradientUnits="userSpaceOnUse" x1="849.40289" y1="463.86139" x2="936.20093" y2="426.52942"><stop offset="0" stop-color="#881518"/><stop offset="1" stop-color="#EE343B"/></linearGradient></defs><path fill="url(#gradient_3)" d="M876.997 400.439C889.488 397.639 908.487 396.359 920.486 401.657C940.819 408.454 948.796 428.581 946.325 448.678C938.774 485.037 900.819 499.662 867.151 492.505C864.292 491.886 861.482 491.062 858.742 490.038C871.728 457.938 875.919 434.982 876.997 400.439Z"/><path fill="#FB474B" d="M946.325 448.678C945.947 447.114 945.438 446.95 944.246 445.974L944.092 444.019C942.204 442.504 943.549 444.883 941.615 444.575C939.11 444.54 936.01 442.301 933.981 441.78C925.522 439.605 910.475 405.662 916.861 401.574C918.319 401.691 919.054 401.688 920.486 401.657C940.819 408.454 948.796 428.581 946.325 448.678Z"/><defs><linearGradient id="gradient_4" gradientUnits="userSpaceOnUse" x1="466.5881" y1="580.40515" x2="394.80359" y2="591.49017"><stop offset="0" stop-color="#C2262B"/><stop offset="1" stop-color="#F6363E"/></linearGradient></defs><path fill="url(#gradient_4)" d="M419.257 548.575C423.387 556.494 425.716 555.554 430.462 560.783C433.538 564.172 445.715 578.577 447.423 581.9C451.98 586.912 461.878 594.266 467.359 598.888C468.804 600.108 471.395 601.321 472.983 602.568C470.357 604.136 453.893 615.03 452.939 616.617C451.906 616.72 448.28 618.148 447.262 618.606C407.192 636.62 377.563 597.074 405.646 563.33C407.854 560.678 409.527 557.821 412.523 555.417C414.297 552.95 416.993 550.679 419.257 548.575Z"/><path fill="#A92022" d="M419.257 548.575C423.387 556.494 425.716 555.554 430.462 560.783C433.538 564.172 445.715 578.577 447.423 581.9C441.898 577.259 424.577 558.753 418.87 552.252C417.977 551.235 414.713 554.421 412.523 555.417C414.297 552.95 416.993 550.679 419.257 548.575Z"/><path fill="#FB474B" d="M571.321 193.722C560.165 180.76 536.668 162.688 519.315 160.88C514.112 160.394 505.75 164.203 501.39 160.107C490.412 149.797 500.303 140.32 512.067 139.792C539.666 138.554 563.526 155.609 582.666 173.686C587.103 177.876 591.283 184.243 595.786 187.89C599.972 194.207 611.615 206.322 609.854 214.361C608.518 220.463 600.472 223.824 594.907 221.652C593.735 221.293 591.758 220.304 591.044 219.354C584.426 210.546 579.115 201.692 571.321 193.722Z"/><defs><linearGradient id="gradient_5" gradientUnits="userSpaceOnUse" x1="529.33813" y1="611.31714" x2="510.79749" y2="656.50714"><stop offset="0" stop-color="#8C1619"/><stop offset="1" stop-color="#BE2329"/></linearGradient></defs><path fill="url(#gradient_5)" d="M490.893 600.549C508.651 610.627 527.701 618.233 547.516 623.158C552.309 624.334 569.484 627.229 572.597 628.705C550.714 642.194 529.102 653.409 502.656 652.361L502.144 652.302L501.294 652.195C499.149 651.934 496.85 651.703 494.833 650.948C468.507 641.083 472.997 614.827 490.893 600.549Z"/><path fill="#95191D" d="M419.257 548.575C420.312 547.426 423.265 544.932 424.552 543.778C436.243 559.436 465.636 586.377 483.083 595.947C479.411 598.712 476.968 600.218 472.983 602.568C471.395 601.321 468.804 600.108 467.359 598.888C461.878 594.266 451.98 586.912 447.423 581.9C445.715 578.577 433.538 564.172 430.462 560.783C425.716 555.554 423.387 556.494 419.257 548.575Z"/><path fill="#95191D" d="M462.595 374.147L463.229 374.5C463.594 378.025 461.3 388.514 459.003 391.132L458.134 390.487C460.632 385.703 462.364 379.545 462.595 374.147Z"/><path fill="#010812" d="M611.08 285.067C633.431 282.747 653.475 298.876 655.991 321.205C658.508 343.535 642.557 363.721 620.25 366.434C597.664 369.182 577.169 352.987 574.621 330.377C572.072 307.766 588.448 287.416 611.08 285.067Z"/><path fill="#4AE1D9" d="M619.885 302.371C629.619 300.982 638.653 307.7 640.124 317.421C641.595 327.143 634.953 336.233 625.244 337.786C615.419 339.357 606.196 332.618 604.708 322.78C603.219 312.942 610.035 303.777 619.885 302.371Z"/><path fill="#010812" d="M782.682 308.832C803.829 306.185 823.117 321.186 825.758 342.335C828.398 363.483 813.39 382.766 792.241 385.399C771.101 388.031 751.829 373.032 749.19 351.893C746.551 330.755 761.544 311.478 782.682 308.832Z"/><path fill="#4AE1D9" d="M789.666 324.735C798.844 322.393 808.187 327.92 810.554 337.092C812.921 346.264 807.419 355.622 798.254 358.013C789.053 360.414 779.652 354.887 777.276 345.68C774.9 336.473 780.452 327.087 789.666 324.735Z"/><path fill="#FB474B" d="M768.623 215.598L769.466 215.556C791.846 195.07 832.72 168.149 863.676 194.089C868.382 198.032 867.591 205.644 863.394 209.647C856.393 216.137 845.714 206.482 840.188 205.475C823.112 202.367 803.002 215.797 790.251 225.818C788.863 226.976 788.354 226.988 788.115 228.428C782.664 232.479 778.933 239.363 772.033 241.381C764.097 243.702 759.956 237.597 758.027 230.724C760.509 222.022 763.291 222.507 768.051 216.35L768.623 215.598Z"/><path fill="#B0E4EE" d="M88.3868 712.188C110.12 709.579 115.711 740.264 90.6063 744.382C65.9194 744.872 65.4052 715.06 88.3868 712.188Z"/><path fill="#B0E4EE" d="M133.635 723.545C149.338 722.421 157.864 739.42 143.176 745.699C126.584 748.029 118.622 729.666 133.635 723.545Z"/><path fill="#B0E4EE" d="M154.435 662.583C167.712 661.509 165.557 674.411 152.928 678.374C138.4 681.25 142.019 665.937 154.435 662.583Z"/><path fill="#B0E4EE" d="M306.337 724.027C317.739 723.467 324.029 734.469 313.724 739.617C302.623 740.214 296.722 730.055 306.337 724.027Z"/></svg>