<svg width="127" height="36" viewBox="0 0 63 18" fill="none" xmlns="http://www.w3.org/2000/svg">
<g clip-path="url(#clip0_7_393)">
<rect width="63" height="18" fill="none" />
<path d="M3.912 7.516C3.888 7.492 3.876 7.464 3.876 7.432C3.876 7.352 3.964 7.288 4.14 7.24C4.316 7.184 4.56 7.156 4.872 7.156C5.152 7.156 5.34 7.236 5.436 7.396C5.532 7.548 5.592 7.748 5.616 7.996C5.6 8.06 5.584 8.148 5.568 8.26L5.508 8.548C5.74 8.276 6.084 8.012 6.54 7.756C6.996 7.492 7.352 7.36 7.608 7.36C8.008 7.36 8.284 7.432 8.436 7.576C8.596 7.712 8.688 7.976 8.712 8.368C9.008 8.088 9.348 7.852 9.732 7.66C10.116 7.46 10.452 7.36 10.74 7.36C11.044 7.36 11.324 7.424 11.58 7.552C11.836 7.672 11.964 7.868 11.964 8.14C11.964 8.212 11.96 8.268 11.952 8.308C11.928 8.436 11.88 8.616 11.808 8.848C11.744 9.072 11.696 9.236 11.664 9.34C11.464 9.988 11.308 10.536 11.196 10.984C11.092 11.424 11.028 11.856 11.004 12.28L11.172 12.868C11.076 13.052 10.94 13.196 10.764 13.3C10.596 13.412 10.348 13.468 10.02 13.468C9.828 13.468 9.688 13.404 9.6 13.276C9.512 13.148 9.468 12.988 9.468 12.796C9.468 12.756 9.472 12.712 9.48 12.664C9.488 12.616 9.492 12.572 9.492 12.532C9.508 12.084 9.572 11.632 9.684 11.176C9.804 10.712 9.956 10.192 10.14 9.616C10.308 9.112 10.392 8.804 10.392 8.692C10.392 8.644 10.384 8.596 10.368 8.548C10.36 8.492 10.348 8.464 10.332 8.464C10.148 8.464 9.844 8.552 9.42 8.728C9.004 8.904 8.724 9.08 8.58 9.256C8.428 9.744 8.176 10.76 7.824 12.304L7.752 12.64C7.712 12.848 7.672 12.992 7.632 13.072C7.6 13.152 7.532 13.212 7.428 13.252C7.324 13.292 7.156 13.312 6.924 13.312C6.372 13.312 6.096 13.2 6.096 12.976C6.16 12.8 6.336 12.124 6.624 10.948C6.8 10.22 7 9.416 7.224 8.536C7.176 8.56 7.088 8.596 6.96 8.644C6.576 8.796 6.24 8.952 5.952 9.112C5.672 9.272 5.444 9.46 5.268 9.676L4.956 10.948C4.908 11.14 4.864 11.32 4.824 11.488C4.784 11.648 4.748 11.784 4.716 11.896C4.676 12.032 4.648 12.216 4.632 12.448C4.616 12.608 4.592 12.724 4.56 12.796C4.536 12.868 4.468 12.928 4.356 12.976C4.252 13.016 4.084 13.036 3.852 13.036C3.588 13.036 3.388 13.008 3.252 12.952C3.116 12.896 3.048 12.776 3.048 12.592C3.048 12.504 3.148 12.036 3.348 11.188C3.556 10.34 3.836 9.236 4.188 7.876L3.912 7.516ZM13.9869 11.296C13.9629 11.392 13.9509 11.488 13.9509 11.584C13.9509 11.752 13.9949 11.888 14.0829 11.992C14.1709 12.096 14.3109 12.148 14.5029 12.148C14.7509 12.148 15.0189 12.076 15.3069 11.932C15.5949 11.788 15.8389 11.612 16.0389 11.404L16.2669 10.456C16.4189 9.816 16.5949 9.124 16.7949 8.38C16.8829 8.06 16.9949 7.8 17.1309 7.6C17.2749 7.392 17.4989 7.288 17.8029 7.288C18.2269 7.288 18.4389 7.416 18.4389 7.672C18.4389 7.712 18.4269 7.764 18.4029 7.828C18.3869 7.884 18.3749 7.932 18.3669 7.972C18.0869 9.156 17.9309 9.816 17.8989 9.952C17.5229 11.632 17.2389 12.8 17.0469 13.456C16.7669 14.424 16.3669 15.112 15.8469 15.52C15.3269 15.928 14.6029 16.132 13.6749 16.132C13.1149 16.132 12.7389 16.048 12.5469 15.88C12.3549 15.72 12.2589 15.52 12.2589 15.28C12.2589 15.136 12.3149 15.012 12.4269 14.908C12.5469 14.804 12.6789 14.752 12.8229 14.752C12.9429 14.752 13.0349 14.764 13.0989 14.788C13.1709 14.82 13.2469 14.864 13.3269 14.92C13.4229 14.992 13.5189 15.044 13.6149 15.076C13.7109 15.116 13.8509 15.136 14.0349 15.136C14.1709 15.136 14.3349 15.08 14.5269 14.968C14.7189 14.856 14.9029 14.676 15.0789 14.428C15.2629 14.188 15.4069 13.892 15.5109 13.54L15.8109 12.496C15.5389 12.752 15.2749 12.94 15.0189 13.06C14.7629 13.188 14.4749 13.252 14.1549 13.252C13.6269 13.252 13.2189 13.088 12.9309 12.76C12.6509 12.432 12.5109 11.996 12.5109 11.452C12.5109 11.292 12.5349 11.116 12.5829 10.924L13.3509 7.876L13.0389 7.516C13.0149 7.492 13.0029 7.464 13.0029 7.432C13.0029 7.352 13.0909 7.288 13.2669 7.24C13.4429 7.184 13.6869 7.156 13.9989 7.156C14.5109 7.156 14.7909 7.4 14.8389 7.888L13.9869 11.296ZM23.3628 5.848C23.3628 5.688 23.4028 5.52 23.4828 5.344C23.5708 5.16 23.6908 5.008 23.8428 4.888C23.9948 4.768 24.1668 4.708 24.3588 4.708C24.7028 4.708 24.9628 4.796 25.1388 4.972C25.3148 5.148 25.4028 5.364 25.4028 5.62C25.4028 5.892 25.3108 6.136 25.1268 6.352C24.9428 6.568 24.7068 6.676 24.4188 6.676C24.1228 6.676 23.8748 6.596 23.6748 6.436C23.4748 6.276 23.3708 6.08 23.3628 5.848ZM23.0388 8.392C23.0948 8.136 23.1868 7.948 23.3148 7.828C23.4508 7.7 23.5988 7.636 23.7588 7.636C23.9508 7.636 24.1228 7.704 24.2748 7.84C24.4348 7.976 24.5188 8.136 24.5268 8.32C24.5268 8.368 24.5188 8.432 24.5028 8.512L22.6068 16.216C22.4868 16.552 22.3228 16.72 22.1148 16.72C21.9468 16.72 21.7948 16.616 21.6588 16.408C21.5308 16.2 21.4668 15.964 21.4668 15.7C21.4668 15.604 21.4788 15.5 21.5028 15.388L23.0388 8.392ZM27.5987 13.252C26.8947 13.252 26.3467 13.012 25.9547 12.532C25.5627 12.052 25.3667 11.44 25.3667 10.696C25.3667 10.072 25.5147 9.484 25.8107 8.932C26.1147 8.38 26.5267 7.936 27.0467 7.6C27.5667 7.264 28.1387 7.096 28.7627 7.096C29.3787 7.096 29.8827 7.3 30.2747 7.708C30.6747 8.108 30.8747 8.7 30.8747 9.484C30.8747 10.036 30.7227 10.608 30.4187 11.2C30.1147 11.792 29.7067 12.284 29.1947 12.676C28.6907 13.06 28.1587 13.252 27.5987 13.252ZM27.7787 12.292C28.0347 12.292 28.2907 12.132 28.5467 11.812C28.8107 11.492 29.0267 11.088 29.1947 10.6C29.3627 10.112 29.4467 9.636 29.4467 9.172C29.4467 8.46 29.1507 8.104 28.5587 8.104C28.2307 8.104 27.9307 8.26 27.6587 8.572C27.3867 8.884 27.1707 9.272 27.0107 9.736C26.8507 10.192 26.7707 10.62 26.7707 11.02C26.7707 11.252 26.8227 11.468 26.9267 11.668C27.0307 11.86 27.1587 12.012 27.3107 12.124C27.4707 12.236 27.6267 12.292 27.7787 12.292ZM36.1764 12.964C36.1444 13.1 36.0724 13.192 35.9604 13.24C35.8484 13.296 35.7004 13.324 35.5164 13.324C34.9644 13.324 34.6884 13.2 34.6884 12.952L34.7604 12.496C34.4884 12.752 34.2204 12.94 33.9564 13.06C33.7004 13.188 33.4084 13.252 33.0804 13.252C32.6164 13.252 32.2244 13.128 31.9044 12.88C31.5924 12.624 31.4364 12.172 31.4364 11.524C31.4364 11.364 31.4604 11.188 31.5084 10.996L32.3124 7.792C32.3604 7.616 32.4444 7.488 32.5644 7.408C32.6924 7.32 32.8964 7.276 33.1764 7.276C33.5924 7.276 33.8004 7.392 33.8004 7.624C33.8004 7.72 33.7724 7.872 33.7164 8.08L32.9124 11.296C32.8884 11.392 32.8764 11.488 32.8764 11.584C32.8764 11.752 32.9204 11.888 33.0084 11.992C33.0964 12.096 33.2364 12.148 33.4284 12.148C33.6844 12.148 33.9724 12.076 34.2924 11.932C34.6124 11.78 34.8684 11.604 35.0604 11.404L35.3724 10.192C35.7004 8.896 35.8924 8.144 35.9484 7.936C35.9964 7.76 36.0404 7.632 36.0804 7.552C36.1284 7.464 36.2084 7.4 36.3204 7.36C36.4324 7.312 36.6004 7.288 36.8244 7.288C37.2484 7.288 37.4604 7.416 37.4604 7.672C37.4604 7.712 37.4484 7.764 37.4244 7.828C37.4084 7.884 37.3964 7.932 37.3884 7.972L36.9084 9.916C36.5244 11.46 36.2804 12.476 36.1764 12.964ZM39.214 12.544C39.206 12.592 39.186 12.688 39.154 12.832C39.13 12.968 39.062 13.064 38.95 13.12C38.846 13.176 38.678 13.204 38.446 13.204C38.182 13.204 37.99 13.176 37.87 13.12C37.75 13.064 37.69 12.944 37.69 12.76L38.266 10.468C38.586 9.148 38.798 8.308 38.902 7.948L38.602 7.588C38.578 7.564 38.566 7.536 38.566 7.504C38.566 7.424 38.654 7.36 38.83 7.312C39.006 7.256 39.25 7.228 39.562 7.228C39.842 7.228 40.03 7.308 40.126 7.468C40.222 7.62 40.282 7.82 40.306 8.068L40.222 8.38C40.478 8.068 40.774 7.812 41.11 7.612C41.454 7.404 41.758 7.3 42.022 7.3C42.366 7.3 42.634 7.36 42.826 7.48C43.018 7.6 43.114 7.756 43.114 7.948C43.114 8.116 43.054 8.292 42.934 8.476C42.822 8.652 42.678 8.804 42.502 8.932C42.326 9.052 42.154 9.12 41.986 9.136C41.826 9.136 41.718 9.116 41.662 9.076C41.606 9.036 41.578 8.976 41.578 8.896L41.65 8.5C41.01 8.676 40.43 9.1 39.91 9.772L39.214 12.544ZM43.9919 7.18C44.3839 6.98 44.6959 6.88 44.9279 6.88C45.1999 6.88 45.3519 7.02 45.3839 7.3L44.9879 8.776C45.1559 8.544 45.4039 8.316 45.7319 8.092C46.0599 7.868 46.3879 7.684 46.7159 7.54C47.0519 7.396 47.3199 7.324 47.5199 7.324C47.9439 7.324 48.2519 7.404 48.4439 7.564C48.6359 7.716 48.7319 7.96 48.7319 8.296C48.6519 8.744 48.5319 9.284 48.3719 9.916C48.2119 10.54 48.1119 10.936 48.0719 11.104C47.8959 11.76 47.7719 12.252 47.6999 12.58C47.6519 12.78 47.6039 12.92 47.5559 13C47.5159 13.072 47.4399 13.124 47.3279 13.156C47.2239 13.188 47.0399 13.204 46.7759 13.204C46.6319 13.204 46.4959 13.18 46.3679 13.132C46.2479 13.084 46.1879 13.004 46.1879 12.892C46.2119 12.628 46.2919 12.224 46.4279 11.68C46.5719 11.128 46.7639 10.416 47.0039 9.544C47.1639 9 47.2439 8.704 47.2439 8.656C47.2439 8.544 47.1799 8.488 47.0519 8.488C46.8679 8.488 46.5919 8.616 46.2239 8.872C45.8559 9.12 45.4759 9.54 45.0839 10.132C44.6919 10.716 44.3839 11.48 44.1599 12.424C44.1439 12.472 44.1239 12.56 44.0999 12.688C44.0759 12.816 44.0119 12.908 43.9079 12.964C43.8039 13.012 43.6359 13.036 43.4039 13.036C43.1399 13.036 42.9439 13.008 42.8159 12.952C42.6959 12.896 42.6359 12.776 42.6359 12.592L42.7679 12.076C43.2399 10.228 43.6479 8.596 43.9919 7.18ZM51.4327 13.252C50.6407 13.252 50.0607 13.096 49.6927 12.784C49.3327 12.472 49.1527 12.056 49.1527 11.536C49.1527 10.76 49.3127 10.056 49.6327 9.424C49.9527 8.784 50.3967 8.284 50.9647 7.924C51.5327 7.556 52.1807 7.372 52.9087 7.372C53.3647 7.372 53.7447 7.5 54.0487 7.756C54.3607 8.012 54.5167 8.392 54.5167 8.896C54.5167 9.432 54.3407 9.852 53.9887 10.156C53.6447 10.46 53.1927 10.68 52.6327 10.816C52.0807 10.944 51.3847 11.048 50.5447 11.128C50.5207 11.232 50.5087 11.356 50.5087 11.5C50.5087 11.724 50.6047 11.896 50.7967 12.016C50.9887 12.136 51.2567 12.196 51.6007 12.196C51.8487 12.196 52.1367 12.144 52.4647 12.04C52.8007 11.936 53.0567 11.764 53.2327 11.524C53.3367 11.388 53.4567 11.28 53.5927 11.2C53.7367 11.12 53.8767 11.08 54.0127 11.08C54.1407 11.08 54.2447 11.124 54.3247 11.212C54.4127 11.292 54.4567 11.416 54.4567 11.584C54.3687 11.84 54.1847 12.1 53.9047 12.364C53.6247 12.62 53.2687 12.832 52.8367 13C52.4127 13.168 51.9447 13.252 51.4327 13.252ZM50.8567 10.024C51.3687 10.016 51.8927 9.92 52.4287 9.736C52.9647 9.544 53.2327 9.212 53.2327 8.74C53.2327 8.628 53.1807 8.544 53.0767 8.488C52.9727 8.424 52.8607 8.392 52.7407 8.392C52.5087 8.392 52.2647 8.48 52.0087 8.656C51.7607 8.824 51.5327 9.036 51.3247 9.292C51.1167 9.54 50.9607 9.784 50.8567 10.024ZM58.5417 16.9C58.4617 16.972 58.3817 17.036 58.3017 17.092C58.2217 17.156 58.1537 17.188 58.0977 17.188C57.8977 17.188 57.7377 17.104 57.6177 16.936C57.5057 16.768 57.4457 16.544 57.4377 16.264L58.5417 12.052C58.3337 12.444 58.0657 12.744 57.7377 12.952C57.4097 13.152 57.0697 13.252 56.7177 13.252C56.3897 13.252 56.0857 13.152 55.8057 12.952C55.5337 12.744 55.3177 12.48 55.1577 12.16C54.9977 11.84 54.9177 11.52 54.9177 11.2C54.9177 10.792 54.9817 10.28 55.1097 9.664C55.2377 9.04 55.4457 8.488 55.7337 8.008C56.0217 7.52 56.3977 7.276 56.8617 7.276C57.0537 7.276 57.2097 7.3 57.3297 7.348C57.4577 7.396 57.5217 7.46 57.5217 7.54C57.5217 7.564 57.5137 7.592 57.4977 7.624C57.1457 8.2 56.8777 8.816 56.6937 9.472C56.5177 10.128 56.4297 10.708 56.4297 11.212C56.4297 11.364 56.4337 11.472 56.4417 11.536C56.4577 11.712 56.5137 11.86 56.6097 11.98C56.7057 12.092 56.8497 12.148 57.0417 12.148C57.5137 12.148 57.9657 11.648 58.3977 10.648C58.8377 9.648 59.1817 8.692 59.4297 7.78C59.4777 7.612 59.5177 7.5 59.5497 7.444C59.5897 7.38 59.6577 7.34 59.7537 7.324C59.8497 7.3 60.0177 7.288 60.2577 7.288C60.6897 7.288 60.9057 7.416 60.9057 7.672C60.9057 7.728 60.8817 7.828 60.8337 7.972C60.7617 8.284 60.6377 8.86 60.4617 9.7C60.1097 11.34 59.8617 12.428 59.7177 12.964C59.3817 14.212 59.1537 15.112 59.0337 15.664L58.7697 16.708L58.5417 16.9Z" fill="#FFFFFF"/>
<path d="M1 1V4" stroke="#FFFFFF" stroke-width="1.5" stroke-linecap="round"/>
<path d="M1 1C1.03474 1 1.33053 1 1.97737 1C2.34632 1 2.79789 1 3.15211 1C3.50632 1 3.74947 1 4 1" stroke="#FFFFFF" stroke-width="1.5" stroke-linecap="round"/>
</g>
<defs>
<clipPath id="clip0_7_393">
<rect width="63" height="18" fill="none" />
</clipPath>
</defs>
</svg>

